<svg width="10" height="7" viewBox="0 0 10 7" fill="none" xmlns="http://www.w3.org/2000/svg">
<path d="M2.44289 6.67C2.37622 6.67 2.31956 6.64667 2.27289 6.6C2.22622 6.55333 2.20289 6.49667 2.20289 6.43V4.48H0.28289C0.216224 4.48 0.159557 4.45667 0.11289 4.41C0.0662238 4.36333 0.0428905 4.30667 0.0428905 4.24V3.71C0.0428905 3.63667 0.0662238 3.58 0.11289 3.54C0.159557 3.49333 0.216224 3.47 0.28289 3.47H2.20289V1.57C2.20289 1.50333 2.22622 1.44667 2.27289 1.4C2.31956 1.35333 2.37622 1.33 2.44289 1.33H3.02289C3.09622 1.33 3.15289 1.35333 3.19289 1.4C3.23956 1.44667 3.26289 1.50333 3.26289 1.57V3.47H5.18289C5.24956 3.47 5.30622 3.49333 5.35289 3.54C5.39956 3.58 5.42289 3.63667 5.42289 3.71V4.24C5.42289 4.30667 5.39956 4.36333 5.35289 4.41C5.30622 4.45667 5.24956 4.48 5.18289 4.48H3.26289V6.43C3.26289 6.49667 3.23956 6.55333 3.19289 6.6C3.15289 6.64667 3.09622 6.67 3.02289 6.67H2.44289ZM8.14109 7C8.06776 7 8.00776 6.97667 7.96109 6.93C7.92109 6.88333 7.90109 6.82667 7.90109 6.76V1.58L6.38109 2.75C6.32109 2.79 6.26109 2.80667 6.20109 2.8C6.14109 2.78667 6.08776 2.75 6.04109 2.69L5.62109 2.15C5.58109 2.09 5.56443 2.02667 5.57109 1.96C5.58443 1.89333 5.62109 1.84 5.68109 1.8L7.92109 0.0699998C7.96109 0.0366665 8.00109 0.0166664 8.04109 0.00999939C8.08109 0.00333281 8.12443 -4.76837e-07 8.17109 -4.76837e-07H9.05109C9.11776 -4.76837e-07 9.17443 0.023333 9.22109 0.0699998C9.26776 0.116666 9.29109 0.173333 9.29109 0.239999V6.76C9.29109 6.82667 9.26776 6.88333 9.22109 6.93C9.17443 6.97667 9.11776 7 9.05109 7H8.14109Z" fill="black" fill-opacity="0.8"/>
</svg>
